<svg xmlns="http://www.w3.org/2000/svg" version="1.1" xmlns:xlink="http://www.w3.org/1999/xlink" xmlns:svgjs="http://svgjs.dev/svgjs" viewBox="0 0 11.025900755073378 9.397945415182164"><g transform="matrix(0.8466668904401888,0,0,0.8466668904401888,1.565825921228261,6.962518958376911)"><g transform="matrix(1,0,0,1,0,0)" clip-path="url(#SvgjsClipPath8816)"><g clip-path="url(#SvgjsClipPath88149528a913-c9d2-4873-a137-720c74f1a096)"><path d=" M 4.979642840229003 -5.547834367952388 L 4.979642840229003 -5.932629570282978 L 4.658168367395853 -5.932629570282978 L 4.658168367395853 -5.547834367952388 L 4.658168367395853 -5.518068213060429 L 4.979642840229003 -5.518068213060429 Z" fill="#2930aa" transform="matrix(1,0,0,1,0,0)" fill-rule="nonzero"></path></g><g clip-path="url(#SvgjsClipPath88149528a913-c9d2-4873-a137-720c74f1a096)"><path d=" M 4.658168367395853 -1.422786502743163 L 4.658168367395853 -1.0185079990287464 L 4.979642840229003 -1.0185079990287464 L 4.979642840229003 -1.422786502743163 L 4.979642840229003 -1.4330693562512948 L 4.658168367395853 -1.4330693562512948 Z" fill="#2930aa" transform="matrix(1,0,0,1,0,0)" fill-rule="nonzero"></path></g><g clip-path="url(#SvgjsClipPath88149528a913-c9d2-4873-a137-720c74f1a096)"><path d=" M 5.882910340495887 -5.547834367952388 L 5.882910340495887 -5.932629570282978 L 5.561977070478954 -5.932629570282978 L 5.561977070478954 -5.547834367952388 L 5.561977070478954 -5.518068213060429 L 5.882910340495887 -5.518068213060429 Z" fill="#2930aa" transform="matrix(1,0,0,1,0,0)" fill-rule="nonzero"></path></g><g clip-path="url(#SvgjsClipPath88149528a913-c9d2-4873-a137-720c74f1a096)"><path d=" M 7.4464452765480305 -2.0484169582905087 L 7.4464452765480305 -4.902179408204997 C 7.4464452765480305 -5.17278081631371 7.2261757303475385 -5.392509159697986 6.955574322238826 -5.392509159697986 L 4.185698308838038 -5.392509159697986 L 4.185698308838038 -4.95846450109161 L 4.763702916558249 -4.380459893371399 C 4.795092679898862 -4.387495529982225 4.826482443239472 -4.390742746879529 4.858954612212517 -4.390742746879529 L 5.871545081355322 -4.390742746879529 C 6.118874768366685 -4.390742746879529 6.320202215999567 -4.189415299246647 6.320202215999567 -3.942085612235284 L 6.320202215999567 -2.9294951430924794 C 6.320202215999567 -2.6821654560811146 6.118874768366685 -2.4808380084482327 5.871545081355322 -2.4808380084482327 L 4.858954612212517 -2.4808380084482327 C 4.808622750304295 -2.4808380084482327 4.759373294028509 -2.489497253507712 4.711747446201376 -2.506274540810452 L 4.185698308838038 -1.9802254034471138 L 4.185698308838038 -1.5575460039813045 L 6.955574322238826 -1.5575460039813045 C 7.2261757303475385 -1.5580872067975209 7.4464452765480305 -1.7778155501817956 7.4464452765480305 -2.0484169582905087 Z" fill="#4976f2" transform="matrix(1,0,0,1,0,0)" fill-rule="nonzero"></path></g><g clip-path="url(#SvgjsClipPath88149528a913-c9d2-4873-a137-720c74f1a096)"><path d=" M 7.570380721461824 -4.902720611021215 L 7.570380721461824 -4.67054460286394 L 7.595276051007825 -4.67054460286394 L 7.984942078684371 -4.67054460286394 L 7.984942078684371 -5.246925602135498 C 7.984942078684371 -5.625767573487697 7.677538879072873 -5.933170773099195 7.298696907720675 -5.933170773099195 L 6.464703367929621 -5.933170773099195 L 6.464703367929621 -5.548375570768605 L 6.464703367929621 -5.5186094158766466 L 6.95503311942261 -5.5186094158766466 C 7.294908488007153 -5.518068213060429 7.570380721461824 -5.242054776789542 7.570380721461824 -4.902720611021215 Z" fill="#2930aa" transform="matrix(1,0,0,1,0,0)" fill-rule="nonzero"></path></g><g clip-path="url(#SvgjsClipPath88149528a913-c9d2-4873-a137-720c74f1a096)"><path d=" M 5.561977070478954 -1.422786502743163 L 5.561977070478954 -1.0185079990287464 L 5.882910340495887 -1.0185079990287464 L 5.882910340495887 -1.422786502743163 L 5.882910340495887 -1.4330693562512948 L 5.561977070478954 -1.4330693562512948 Z" fill="#2930aa" transform="matrix(1,0,0,1,0,0)" fill-rule="nonzero"></path></g><g clip-path="url(#SvgjsClipPath88149528a913-c9d2-4873-a137-720c74f1a096)"><path d=" M 7.984942078684371 -3.766735899780837 L 7.984942078684371 -4.0876691697977705 L 7.595817253824043 -4.0876691697977705 L 7.570380721461824 -4.0876691697977705 L 7.570380721461824 -3.766735899780837 L 7.595817253824043 -3.766735899780837 Z" fill="#2930aa" transform="matrix(1,0,0,1,0,0)" fill-rule="nonzero"></path></g><g clip-path="url(#SvgjsClipPath88149528a913-c9d2-4873-a137-720c74f1a096)"><path d=" M 7.570380721461824 -2.2811341692640026 L 7.570380721461824 -2.048958161106727 C 7.570380721461824 -1.7096239953383998 7.294367285190937 -1.433610559067513 6.95503311942261 -1.433610559067513 L 6.464703367929621 -1.433610559067513 L 6.464703367929621 -1.423327705559383 L 6.464703367929621 -1.0190492018449646 L 7.298696907720675 -1.0190492018449646 C 7.677538879072873 -1.0190492018449646 7.984942078684371 -1.3264524014564625 7.984942078684371 -1.7052943728086616 L 7.984942078684371 -2.28167537208022 L 7.595276051007825 -2.28167537208022 L 7.570380721461824 -2.28167537208022 L 7.570380721461824 -2.2811341692640026 Z" fill="#2930aa" transform="matrix(1,0,0,1,0,0)" fill-rule="nonzero"></path></g><g clip-path="url(#SvgjsClipPath88149528a913-c9d2-4873-a137-720c74f1a096)"><path d=" M 7.570380721461824 -2.8634683995139527 L 7.595817253824043 -2.8634683995139527 L 7.984942078684371 -2.8634683995139527 L 7.984942078684371 -3.1844016695308865 L 7.595817253824043 -3.1844016695308865 L 7.570380721461824 -3.1844016695308865 Z" fill="#2930aa" transform="matrix(1,0,0,1,0,0)" fill-rule="nonzero"></path></g><g clip-path="url(#SvgjsClipPath88149528a913-c9d2-4873-a137-720c74f1a096)"><path d=" M 6.0079281910421125 -1.422786502743163 L 6.340767923015831 -1.422786502743163 L 6.340767923015831 -0.2500000000000018 L 6.0079281910421125 -0.2500000000000018 Z" fill="#4976f2" transform="matrix(1,0,0,1,0,0)" fill-rule="nonzero"></path></g><g clip-path="url(#SvgjsClipPath88149528a913-c9d2-4873-a137-720c74f1a096)"><path d=" M 5.10466069077523 -1.422786502743163 L 5.437500422748947 -1.422786502743163 L 5.437500422748947 -0.2500000000000018 L 5.10466069077523 -0.2500000000000018 Z" fill="#4976f2" transform="matrix(1,0,0,1,0,0)" fill-rule="nonzero"></path></g><g clip-path="url(#SvgjsClipPath88149528a913-c9d2-4873-a137-720c74f1a096)"><path d=" M 4.200851987692126 -1.422786502743163 L 4.5336917196658435 -1.422786502743163 L 4.5336917196658435 -0.2500000000000018 L 4.200851987692126 -0.2500000000000018 Z" fill="#4976f2" transform="matrix(1,0,0,1,0,0)" fill-rule="nonzero"></path></g><g clip-path="url(#SvgjsClipPath88149528a913-c9d2-4873-a137-720c74f1a096)"><path d=" M 6.0079281910421125 -6.521458234327538 L 6.340767923015831 -6.521458234327538 L 6.340767923015831 -5.547834367952388 L 6.0079281910421125 -5.547834367952388 Z" fill="#4976f2" transform="matrix(1,0,0,1,0,0)" fill-rule="nonzero"></path></g><g clip-path="url(#SvgjsClipPath88149528a913-c9d2-4873-a137-720c74f1a096)"><path d=" M 5.10466069077523 -6.521458234327538 L 5.437500422748947 -6.521458234327538 L 5.437500422748947 -5.547834367952388 L 5.10466069077523 -5.547834367952388 Z" fill="#4976f2" transform="matrix(1,0,0,1,0,0)" fill-rule="nonzero"></path></g><g clip-path="url(#SvgjsClipPath88149528a913-c9d2-4873-a137-720c74f1a096)"><path d=" M 4.200851987692126 -6.521458234327538 L 4.5336917196658435 -6.521458234327538 L 4.5336917196658435 -5.547834367952388 L 4.200851987692126 -5.547834367952388 Z" fill="#4976f2" transform="matrix(1,0,0,1,0,0)" fill-rule="nonzero"></path></g><g clip-path="url(#SvgjsClipPath88149528a913-c9d2-4873-a137-720c74f1a096)"><path d=" M 7.595817253824043 -4.5455267523177145 L 8.699329796091376 -4.5455267523177145 L 8.699329796091376 -4.212687020343997 L 7.595817253824043 -4.212687020343997 Z" fill="#4976f2" transform="matrix(1,0,0,1,0,0)" fill-rule="nonzero"></path></g><g clip-path="url(#SvgjsClipPath88149528a913-c9d2-4873-a137-720c74f1a096)"><path d=" M 7.595817253824043 -3.641718049234612 L 8.699329796091376 -3.641718049234612 L 8.699329796091376 -3.3088783172608944 L 7.595817253824043 -3.3088783172608944 Z" fill="#4976f2" transform="matrix(1,0,0,1,0,0)" fill-rule="nonzero"></path></g><g clip-path="url(#SvgjsClipPath88149528a913-c9d2-4873-a137-720c74f1a096)"><path d=" M 7.595817253824043 -2.7384505489677275 L 8.699329796091376 -2.7384505489677275 L 8.699329796091376 -2.4056108169940096 L 7.595817253824043 -2.4056108169940096 Z" fill="#4976f2" transform="matrix(1,0,0,1,0,0)" fill-rule="nonzero"></path></g><g clip-path="url(#SvgjsClipPath88149528a913-c9d2-4873-a137-720c74f1a096)"><path d=" M 4.686310913839157 -2.657270126535113 C 4.736642775747379 -2.6253391603782856 4.795633882715078 -2.606397061810676 4.859495815028733 -2.606397061810676 L 5.872086284171538 -2.606397061810676 C 6.05068321352329 -2.606397061810676 6.195725568269559 -2.7514394165569453 6.195725568269559 -2.9300363459086958 L 6.195725568269559 -3.9426268150515003 C 6.195725568269559 -4.1212237444032525 6.050683213523288 -4.266266099149522 5.872086284171538 -4.266266099149522 L 4.859495815028733 -4.266266099149522 C 4.813493575650252 -4.266266099149522 4.769656147536641 -4.256524448457606 4.73014834195277 -4.238664755522432 L 4.059056849843161 -4.909756247632041 C 4.060139255475596 -4.918956695507738 4.061762863924249 -4.928157143383435 4.061762863924249 -4.937898794075348 L 4.061762863924249 -5.555952410195649 C 4.061762863924249 -5.664734176255352 3.9735468048808085 -5.7534914381150095 3.864223836004887 -5.7534914381150095 L 3.2461702198845868 -5.7534914381150095 C 3.1373884538248835 -5.7534914381150095 3.0486311919652254 -5.665275379071569 3.0486311919652254 -5.555952410195649 L 3.0486311919652254 -4.937898794075348 C 3.0486311919652254 -4.829117028015645 3.136847251008666 -4.740359766155986 3.2461702198845868 -4.740359766155986 L 3.864223836004887 -4.740359766155986 C 3.8739654866968007 -4.740359766155986 3.8831659345724967 -4.741983374604638 3.892366382448194 -4.743065780237075 L 4.563457874557803 -4.071974288127466 C 4.546139384438845 -4.032466482543594 4.535856530930715 -3.9886290544299814 4.535856530930715 -3.9426268150515003 L 4.535856530930715 -2.9300363459086958 C 4.535856530930715 -2.902435002281608 4.540186153460455 -2.876457267103169 4.546680587255063 -2.8510207347409513 L 3.8918251796319776 -2.196165327117866 C 3.8826247317562816 -2.1972477327503004 3.8734242838805844 -2.198871341198954 3.8636826331886707 -2.198871341198954 L 3.245629017068369 -2.198871341198954 C 3.136847251008667 -2.198871341198954 3.048089989149009 -2.1106552821555136 3.048089989149009 -2.001332313279592 L 3.048089989149009 -1.3832786971592919 C 3.048089989149009 -1.2744969310995895 3.1363060481924494 -1.1857396692399318 3.245629017068369 -1.1857396692399318 L 3.8636826331886707 -1.1857396692399318 C 3.9724643992483726 -1.1857396692399318 4.06122166110803 -1.2739557282833722 4.06122166110803 -1.3832786971592919 L 4.06122166110803 -2.001332313279592 C 4.06122166110803 -2.011073963971506 4.0595980526593785 -2.0202744118472014 4.058515647026943 -2.0294748597228995 L 4.686310913839157 -2.657270126535113 Z" fill="#3de9f2" transform="matrix(1,0,0,1,0,0)" fill-rule="nonzero"></path></g><g clip-path="url(#SvgjsClipPath88149528a913-c9d2-4873-a137-720c74f1a096)"><path d=" M 3.834457681112929 -2.861303588249083 C 3.9605579372915907 -2.861303588249083 4.062304066740467 -2.963590920514177 4.062304066740467 -3.08914997387662 L 4.062304066740467 -3.802455285651187 C 4.062304066740467 -3.928555541829848 3.9600167344753743 -4.030301671278725 3.834457681112929 -4.030301671278725 L 3.1211523693383616 -4.030301671278725 C 3.088680200365316 -4.030301671278725 3.0578316398409227 -4.023266034667898 3.029689093397617 -4.0108183698948965 L 2.5550542235749343 -4.485453239717579 C 2.5561366292073693 -4.491406470695971 2.5588426432884557 -4.4973597016743625 2.5588426432884557 -4.503312932652754 L 2.5588426432884557 -4.938439996891566 C 2.5588426432884557 -5.0152907967944405 2.4966043194234517 -5.0775291206594435 2.4197535195205777 -5.0775291206594435 L 1.9846264552817667 -5.0775291206594435 C 1.907775655378892 -5.0775291206594435 1.8455373315138883 -5.015290796794439 1.8455373315138883 -4.938439996891566 L 1.8455373315138883 -4.503312932652754 C 1.8455373315138883 -4.426462132749881 1.907775655378893 -4.364223808884877 1.9846264552817667 -4.364223808884877 L 2.4197535195205773 -4.364223808884877 C 2.426247953315186 -4.364223808884877 2.43165998147736 -4.3669298229659645 2.437613212455752 -4.368012228598399 L 2.9122480822784347 -3.893377358775715 C 2.8998004175054333 -3.8652348123324076 2.892764780894607 -3.834386251808016 2.892764780894607 -3.8019140828349705 L 2.892764780894607 -3.0886087710604024 C 2.892764780894607 -3.0691254696765733 2.896011997791912 -3.050724573925183 2.900341620321651 -3.0328648809900076 L 2.437613212455752 -2.570136473124107 C 2.43165998147736 -2.5712188787565426 2.4257067504989682 -2.573924892837629 2.4197535195205773 -2.573924892837629 L 1.9846264552817667 -2.573924892837629 C 1.907775655378892 -2.573924892837629 1.8455373315138883 -2.5116865689726247 1.8455373315138883 -2.4348357690697497 L 1.8455373315138883 -1.9997087048309403 C 1.8455373315138883 -1.9228579049280654 1.907775655378893 -1.8606195810630624 1.9846264552817667 -1.8606195810630624 L 2.4197535195205773 -1.8606195810630624 C 2.4966043194234517 -1.8606195810630624 2.558842643288455 -1.9228579049280654 2.558842643288455 -1.9997087048309403 L 2.558842643288455 -2.4348357690697497 C 2.558842643288455 -2.4413302028643598 2.5561366292073675 -2.4467422310265334 2.555054223574934 -2.452695462004927 L 2.998840532873223 -2.8964817713032147 C 3.0340187159273566 -2.874292455838301 3.075691332776098 -2.860762385432865 3.1206111665221434 -2.860762385432865 L 3.834457681112929 -2.861303588249083 L 3.834457681112929 -2.861303588249083 Z" fill="#96d085" transform="matrix(1,0,0,1,0,0)" fill-rule="nonzero"></path></g><g clip-path="url(#SvgjsClipPath88149528a913-c9d2-4873-a137-720c74f1a096)"><path d=" M 2.384575336466445 -3.21525023005528 L 2.384575336466445 -3.6920499111428327 C 2.384575336466445 -3.7764775504727512 2.316383781623048 -3.844669105316146 2.2319561422931304 -3.844669105316146 L 1.7551564612055781 -3.844669105316146 C 1.7335083485568807 -3.844669105316146 1.7129426415406188 -3.8397982799701897 1.6940005429730092 -3.8316802377269283 L 1.3763144898533795 -4.149366290846558 C 1.3768556926695974 -4.153695913376298 1.3790205039344667 -4.1569431302736 1.3790205039344667 -4.16127275280334 L 1.3790205039344667 -4.452439867928316 C 1.3790205039344667 -4.503854135468972 1.3373478870857252 -4.545526752317713 1.2859336195450695 -4.545526752317713 L 0.9947665044200948 -4.545526752317713 C 0.9433522368794389 -4.545526752317713 0.9016796200306969 -4.503854135468972 0.9016796200306969 -4.452439867928316 L 0.9016796200306969 -4.16127275280334 C 0.9016796200306969 -4.109858485262686 0.9433522368794389 -4.068185868413943 0.9947665044200948 -4.068185868413943 L 1.2859336195450695 -4.068185868413943 C 1.290263242074809 -4.068185868413943 1.294051661788331 -4.069809476862595 1.2978400815018531 -4.070891882495031 L 1.6155261346214826 -3.7532058293754016 C 1.607408092378221 -3.734263730807792 1.6025372670322642 -3.7142392266077464 1.6025372670322642 -3.6920499111428327 L 1.6025372670322642 -3.21525023005528 C 1.6025372670322642 -3.20280256528228 1.6068668895620037 -3.191437306141713 1.6095729036430908 -3.180072047001147 L 1.2978400815018531 -2.8683392248599104 C 1.2935104589721131 -2.868880427676127 1.290263242074809 -2.871045238940998 1.2859336195450695 -2.871045238940998 L 0.9947665044200948 -2.871045238940998 C 0.9433522368794389 -2.871045238940998 0.9016796200306969 -2.8293726220922553 0.9016796200306969 -2.7779583545516005 L 0.9016796200306969 -2.4867912394266254 C 0.9016796200306969 -2.4353769718859706 0.9433522368794389 -2.3937043550372277 0.9947665044200948 -2.3937043550372277 L 1.2859336195450695 -2.3937043550372277 C 1.3373478870857252 -2.3937043550372277 1.3790205039344667 -2.4353769718859706 1.3790205039344667 -2.4867912394266254 L 1.3790205039344667 -2.7779583545516005 C 1.3790205039344667 -2.78228797708134 1.3773968954858145 -2.786076396794862 1.3763144898533795 -2.789864816508384 L 1.6750584444053989 -3.0886087710604038 C 1.6983301655027483 -3.073455092206316 1.7248491034974025 -3.062631035881968 1.7546152583893602 -3.062631035881968 L 2.231414939476913 -3.062631035881968 C 2.3158425788068318 -3.0631722386981832 2.384575336466445 -3.1313637935415795 2.384575336466445 -3.21525023005528 Z" fill="#ffb600" transform="matrix(1,0,0,1,0,0)" fill-rule="nonzero"></path></g><g clip-path="url(#SvgjsClipPath88149528a913-c9d2-4873-a137-720c74f1a096)"><path d=" M 2.189201119811954 -5.824930209855709 L 2.503639956034278 -5.824930209855709 C 2.569666699612804 -5.824930209855709 2.623786981234547 -5.878509288661235 2.623786981234547 -5.945077235055978 L 2.623786981234547 -6.259516071278303 C 2.623786981234547 -6.325542814856829 2.570207902429022 -6.379663096478572 2.503639956034278 -6.379663096478572 L 2.189201119811954 -6.379663096478572 C 2.123174376233428 -6.379663096478572 2.069054094611685 -6.326084017673046 2.069054094611685 -6.259516071278303 L 2.069054094611685 -5.945077235055978 C 2.0695952974279024 -5.879050491477452 2.123174376233428 -5.824930209855709 2.189201119811954 -5.824930209855709 Z" fill="#3de9f2" transform="matrix(1,0,0,1,0,0)" fill-rule="nonzero"></path></g><g clip-path="url(#SvgjsClipPath88149528a913-c9d2-4873-a137-720c74f1a096)"><path d=" M 1.0981362423176229 -5.270738526049065 L 1.2556262618368939 -5.270738526049065 C 1.2886396336261563 -5.270738526049065 1.3156997744370278 -5.297798666859936 1.3156997744370278 -5.330812038649199 L 1.3156997744370278 -5.487760855352254 C 1.3156997744370278 -5.5207742271415166 1.2886396336261563 -5.547834367952388 1.2556262618368939 -5.547834367952388 L 1.0981362423176229 -5.547834367952388 C 1.0651228705283597 -5.547834367952388 1.0380627297174883 -5.5207742271415166 1.0380627297174883 -5.487760855352254 L 1.0380627297174883 -5.330812038649199 C 1.0380627297174883 -5.297257464043719 1.0651228705283597 -5.270738526049065 1.0981362423176229 -5.270738526049065 Z" fill="#ffb600" transform="matrix(1,0,0,1,0,0)" fill-rule="nonzero"></path></g><g clip-path="url(#SvgjsClipPath88149528a913-c9d2-4873-a137-720c74f1a096)"><path d=" M 2.641646674169722 -1.470953553386516 L 2.318548592887919 -1.470953553386516 C 2.2503570380445224 -1.470953553386516 2.1951543507903457 -1.4157508661323375 2.1951543507903457 -1.3475593112889426 L 2.1951543507903457 -1.0244612300071383 C 2.1951543507903457 -0.9562696751637434 2.2503570380445224 -0.901066987909565 2.318548592887919 -0.901066987909565 L 2.641646674169722 -0.901066987909565 C 2.709838229013118 -0.901066987909565 2.7650409162672953 -0.9562696751637434 2.7650409162672953 -1.0244612300071383 L 2.7650409162672953 -1.3475593112889426 C 2.7650409162672953 -1.4157508661323375 2.709838229013118 -1.470953553386516 2.641646674169722 -1.470953553386516 Z" fill="#3de9f2" transform="matrix(1,0,0,1,0,0)" fill-rule="nonzero"></path></g><g clip-path="url(#SvgjsClipPath88149528a913-c9d2-4873-a137-720c74f1a096)"><path d=" M 0.902220822846914 -3.5480899620289974 C 0.902220822846914 -3.5811033338182607 0.8751606820360426 -3.6081634746291322 0.84214731024678 -3.6081634746291322 L 0.6846572907275091 -3.6081634746291322 C 0.6516439189382458 -3.6081634746291322 0.6245837781273744 -3.5811033338182607 0.6245837781273744 -3.5480899620289974 L 0.6245837781273744 -3.3905999425097266 C 0.6245837781273744 -3.3575865707204633 0.6516439189382458 -3.330526429909592 0.6846572907275091 -3.330526429909592 L 0.84214731024678 -3.330526429909592 C 0.8751606820360426 -3.330526429909592 0.902220822846914 -3.3575865707204633 0.902220822846914 -3.3905999425097266 L 0.902220822846914 -3.5480899620289974 Z" fill="#ffb600" transform="matrix(1,0,0,1,0,0)" fill-rule="nonzero"></path></g></g><g><path d=" M 1.071 0.6165000000000002 Q 1.071 0.9255000000000002 0.897 1.0470000000000002 Q 0.7365 1.1595000000000002 0.456 1.1595000000000002 L 0.0315 1.1595000000000002 L 0.0315 1.1310000000000002 L 0.1305 1.1310000000000002 L 0.1305 0.13800000000000012 L 0.0315 0.13800000000000012 L 0.0315 0.10950000000000015 L 0.495 0.10950000000000015 Q 0.783 0.10950000000000015 0.927 0.22725000000000017 Q 1.071 0.3450000000000002 1.071 0.6165000000000002 M 0.423 1.1310000000000002 L 0.48 1.1310000000000002 Q 0.6315000000000001 1.1310000000000002 0.69675 1.0237500000000002 Q 0.762 0.9165000000000002 0.762 0.6645000000000002 L 0.762 0.5775000000000002 Q 0.762 0.2400000000000002 0.633 0.17100000000000015 Q 0.5715 0.13800000000000012 0.459 0.13800000000000012 L 0.423 0.13800000000000012 L 0.423 1.1310000000000002 M 1.92449853515625 0.10950000000000015 L 1.92449853515625 0.14250000000000007 L 1.48049853515625 1.1250000000000002 L 1.53149853515625 1.1250000000000002 Q 1.66649853515625 1.1250000000000002 1.7692485351562501 1.0387500000000003 Q 1.87199853515625 0.9525000000000001 1.91699853515625 0.7935000000000002 L 1.94399853515625 0.7935000000000002 L 1.9259985351562499 1.1595000000000002 L 1.15799853515625 1.1595000000000002 L 1.15799853515625 1.1310000000000002 L 1.60649853515625 0.14250000000000007 L 1.54499853515625 0.14250000000000007 Q 1.41149853515625 0.14250000000000007 1.34249853515625 0.20100000000000018 Q 1.27349853515625 0.2595000000000002 1.18649853515625 0.44100000000000017 L 1.15949853515625 0.44100000000000017 L 1.18199853515625 0.10950000000000015 L 1.92449853515625 0.10950000000000015 M 2.473497802734375 0.025500000000000078 Q 2.416497802734375 0.025500000000000078 2.398497802734375 0.06825000000000014 Q 2.380497802734375 0.11100000000000021 2.380497802734375 0.20550000000000013 L 2.380497802734375 0.44550000000000023 L 2.578497802734375 0.44550000000000023 L 2.578497802734375 0.47250000000000014 L 2.380497802734375 0.47250000000000014 L 2.380497802734375 1.1325000000000003 L 2.563497802734375 1.1325000000000003 L 2.563497802734375 1.1595000000000002 L 2.018997802734375 1.1595000000000002 L 2.018997802734375 1.1325000000000003 L 2.101497802734375 1.1325000000000003 L 2.101497802734375 0.47250000000000014 L 2.014497802734375 0.47250000000000014 L 2.014497802734375 0.44550000000000023 L 2.101497802734375 0.44550000000000023 L 2.101497802734375 0.4395000000000002 Q 2.101497802734375 0.22350000000000014 2.183997802734375 0.11175000000000024 Q 2.266497802734375 2.220446049250313e-16 2.459997802734375 2.220446049250313e-16 Q 2.587497802734375 2.220446049250313e-16 2.6429978027343752 0.05025000000000013 Q 2.698497802734375 0.10050000000000026 2.698497802734375 0.1665000000000002 Q 2.698497802734375 0.23250000000000015 2.663997802734375 0.2655000000000002 Q 2.629497802734375 0.2985000000000002 2.5724978027343752 0.2985000000000002 Q 2.515497802734375 0.2985000000000002 2.484747802734375 0.2692500000000002 Q 2.453997802734375 0.2400000000000002 2.453997802734375 0.2017500000000002 Q 2.453997802734375 0.1635000000000002 2.462997802734375 0.12750000000000017 L 2.519997802734375 0.12750000000000017 Q 2.5499978027343753 0.025500000000000078 2.473497802734375 0.025500000000000078 M 3.0944912109375 0.48750000000000016 Q 3.0389912109375 0.48750000000000016 2.9969912109375 0.5595000000000002 Q 2.9549912109375 0.6315000000000002 2.9549912109375 0.7305000000000001 L 2.9549912109375 1.1325000000000003 L 3.0614912109375 1.1325000000000003 L 3.0614912109375 1.1595000000000002 L 2.5934912109375 1.1595000000000002 L 2.5934912109375 1.1325000000000003 L 2.6759912109375 1.1325000000000003 L 2.6759912109375 0.47250000000000014 L 2.5934912109375 0.47250000000000014 L 2.5934912109375 0.44550000000000023 L 2.9549912109375 0.44550000000000023 L 2.9549912109375 0.5895000000000001 Q 2.9744912109375 0.5130000000000002 3.0299912109375002 0.4717500000000002 Q 3.0854912109375 0.4305000000000002 3.1559912109375 0.4305000000000002 Q 3.2264912109375 0.4305000000000002 3.2707412109375 0.47025000000000017 Q 3.3149912109375 0.5100000000000002 3.3149912109375 0.5827500000000002 Q 3.3149912109375 0.6555000000000002 3.2819912109375 0.6945000000000001 Q 3.2489912109375 0.7335000000000003 3.1807412109375 0.7335000000000003 Q 3.1124912109375 0.7335000000000003 3.0802412109375 0.6885000000000001 Q 3.0479912109375 0.6435000000000002 3.0719912109375 0.5640000000000002 L 3.1259912109375 0.5640000000000002 Q 3.1634912109375 0.48750000000000016 3.0944912109375 0.48750000000000016 M 3.4327265625 1.07475 Q 3.3359765625 0.9750000000000002 3.3359765625 0.7972500000000002 Q 3.3359765625 0.6195000000000002 3.4447265625 0.5250000000000001 Q 3.5534765625 0.4305000000000002 3.7214765625 0.4305000000000002 Q 4.0619765625 0.4305000000000002 4.0484765625 0.7725000000000002 L 3.6254765625 0.7725000000000002 L 3.6254765625 0.8310000000000002 Q 3.6254765625 0.9780000000000002 3.6629765625 1.0530000000000002 Q 3.7004765625 1.1280000000000001 3.7934765625 1.1280000000000001 Q 3.9674765625 1.1280000000000001 4.0214765625 0.9420000000000002 L 4.0484765625 0.9465000000000002 Q 4.0199765625 1.0545000000000002 3.9457265625 1.1145000000000003 Q 3.8714765625 1.1745 3.7229765625 1.1745 Q 3.5294765625 1.1745 3.4327265625 1.07475 M 3.6269765625 0.7425000000000002 L 3.7814765625 0.7425000000000002 L 3.7814765625 0.6690000000000003 Q 3.7814765625 0.5475000000000002 3.7672265625 0.5032500000000002 Q 3.7529765625 0.4590000000000002 3.7102265625 0.4590000000000002 Q 3.6674765625 0.4590000000000002 3.6472265625 0.5062500000000002 Q 3.6269765625 0.5535000000000002 3.6269765625 0.6690000000000003 L 3.6269765625 0.7425000000000002 M 4.20671337890625 1.07475 Q 4.10996337890625 0.9750000000000002 4.10996337890625 0.7972500000000002 Q 4.10996337890625 0.6195000000000002 4.21871337890625 0.5250000000000001 Q 4.32746337890625 0.4305000000000002 4.49546337890625 0.4305000000000002 Q 4.83596337890625 0.4305000000000002 4.82246337890625 0.7725000000000002 L 4.39946337890625 0.7725000000000002 L 4.39946337890625 0.8310000000000002 Q 4.39946337890625 0.9780000000000002 4.43696337890625 1.0530000000000002 Q 4.4744633789062505 1.1280000000000001 4.56746337890625 1.1280000000000001 Q 4.74146337890625 1.1280000000000001 4.79546337890625 0.9420000000000002 L 4.82246337890625 0.9465000000000002 Q 4.79396337890625 1.0545000000000002 4.71971337890625 1.1145000000000003 Q 4.64546337890625 1.1745 4.49696337890625 1.1745 Q 4.30346337890625 1.1745 4.20671337890625 1.07475 M 4.40096337890625 0.7425000000000002 L 4.55546337890625 0.7425000000000002 L 4.55546337890625 0.6690000000000003 Q 4.55546337890625 0.5475000000000002 4.54121337890625 0.5032500000000002 Q 4.52696337890625 0.4590000000000002 4.48421337890625 0.4590000000000002 Q 4.44146337890625 0.4590000000000002 4.42121337890625 0.5062500000000002 Q 4.40096337890625 0.5535000000000002 4.40096337890625 0.6690000000000003 L 4.40096337890625 0.7425000000000002 M 4.8704501953125 0.0345000000000002 L 5.2379501953125 0.0345000000000002 L 5.2379501953125 1.1325000000000003 L 5.3219501953125 1.1325000000000003 L 5.3219501953125 1.1595000000000002 L 4.8764501953125 1.1595000000000002 L 4.8764501953125 1.1325000000000003 L 4.9589501953125 1.1325000000000003 L 4.9589501953125 0.06150000000000011 L 4.8704501953125 0.06150000000000011 L 4.8704501953125 0.0345000000000002 M 5.710418701171875 0.8070000000000002 L 5.753918701171875 0.8070000000000002 L 5.753918701171875 0.6915000000000002 Q 5.753918701171875 0.5490000000000002 5.738168701171875 0.5002500000000002 Q 5.7224187011718755 0.45150000000000023 5.677418701171875 0.45150000000000023 Q 5.650418701171875 0.45150000000000023 5.6286687011718755 0.4657500000000002 Q 5.606918701171875 0.4800000000000002 5.606918701171875 0.5047500000000001 Q 5.606918701171875 0.5295000000000002 5.615918701171875 0.5550000000000002 L 5.653418701171875 0.5550000000000002 Q 5.665418701171875 0.5865000000000001 5.665418701171875 0.6307500000000001 Q 5.665418701171875 0.6750000000000003 5.627918701171875 0.7072500000000002 Q 5.590418701171875 0.7395000000000003 5.533418701171875 0.7395000000000003 Q 5.404418701171875 0.7395000000000003 5.404418701171875 0.6150000000000002 Q 5.404418701171875 0.4305000000000002 5.717918701171875 0.4305000000000002 Q 5.896418701171875 0.4305000000000002 5.964668701171875 0.4912500000000002 Q 6.032918701171875 0.5520000000000002 6.032918701171875 0.7140000000000002 L 6.032918701171875 1.0185000000000002 Q 6.032918701171875 1.0965000000000003 6.076418701171875 1.0965000000000003 Q 6.127418701171875 1.0965000000000003 6.136418701171875 0.9420000000000002 L 6.158918701171875 0.9435000000000002 Q 6.152918701171875 1.0755000000000001 6.109418701171875 1.1250000000000002 Q 6.065918701171875 1.1745 5.966918701171875 1.1745 Q 5.786918701171875 1.1745 5.759918701171875 1.0635000000000001 Q 5.740418701171875 1.1205000000000003 5.701418701171875 1.1475000000000002 Q 5.662418701171875 1.1745 5.587418701171875 1.1745 Q 5.365418701171875 1.1745 5.365418701171875 0.9930000000000002 Q 5.365418701171875 0.8865000000000002 5.450168701171875 0.8467500000000001 Q 5.5349187011718755 0.8070000000000002 5.710418701171875 0.8070000000000002 M 5.658668701171875 1.092 Q 5.666918701171875 1.1145000000000003 5.690168701171875 1.1145000000000003 Q 5.713418701171875 1.1145000000000003 5.733668701171875 1.0762500000000002 Q 5.753918701171875 1.0380000000000003 5.753918701171875 0.9705000000000001 L 5.753918701171875 0.8310000000000002 L 5.743418701171875 0.8310000000000002 Q 5.650418701171875 0.8310000000000002 5.650418701171875 0.9675000000000002 L 5.650418701171875 0.9915000000000002 Q 5.650418701171875 1.0695000000000001 5.658668701171875 1.092 M 6.176935546875 0.44550000000000023 L 6.538435546875 0.44550000000000023 L 6.538435546875 0.5835000000000001 Q 6.562435546875 0.5145000000000002 6.611935546875 0.47250000000000014 Q 6.661435546875 0.4305000000000002 6.761935546875 0.4305000000000002 Q 6.994435546875 0.4305000000000002 6.994435546875 0.6810000000000002 L 6.994435546875 1.1325000000000003 L 7.078435546875 1.1325000000000003 L 7.078435546875 1.1595000000000002 L 6.653935546875 1.1595000000000002 L 6.653935546875 1.1325000000000003 L 6.715435546875 1.1325000000000003 L 6.715435546875 0.6450000000000002 Q 6.715435546875 0.5550000000000002 6.703435546875 0.5287500000000002 Q 6.691435546875 0.5025000000000002 6.659935546875 0.5025000000000002 Q 6.611935546875 0.5025000000000002 6.575185546875 0.5655000000000002 Q 6.538435546875 0.6285000000000002 6.538435546875 0.7185000000000001 L 6.538435546875 1.1325000000000003 L 6.602935546875 1.1325000000000003 L 6.602935546875 1.1595000000000002 L 6.176935546875 1.1595000000000002 L 6.176935546875 1.1325000000000003 L 6.259435546875 1.1325000000000003 L 6.259435546875 0.47250000000000014 L 6.176935546875 0.47250000000000014 L 6.176935546875 0.44550000000000023 M 7.517977294921875 0.45750000000000013 Q 7.451977294921875 0.45750000000000013 7.4234772949218755 0.5295000000000002 Q 7.394977294921875 0.6015000000000001 7.394977294921875 0.7680000000000002 L 7.394977294921875 0.8460000000000002 Q 7.394977294921875 0.9945000000000002 7.427977294921875 1.0590000000000002 Q 7.460977294921875 1.1235000000000002 7.549477294921875 1.1235000000000002 Q 7.637977294921875 1.1235000000000002 7.690477294921875 1.0635000000000001 Q 7.742977294921875 1.0035000000000003 7.757977294921875 0.9270000000000002 L 7.784977294921875 0.9300000000000002 Q 7.756477294921875 1.0590000000000002 7.6799772949218745 1.116 Q 7.601977294921875 1.1745 7.465477294921875 1.1745 Q 7.291477294921875 1.1745 7.198477294921875 1.08075 Q 7.105477294921875 0.9870000000000002 7.105477294921875 0.8062500000000001 Q 7.105477294921875 0.6255000000000002 7.211227294921875 0.5280000000000001 Q 7.316977294921875 0.4305000000000002 7.505977294921875 0.4305000000000002 Q 7.639477294921875 0.4305000000000002 7.709977294921875 0.4822500000000002 Q 7.780477294921875 0.5340000000000001 7.780477294921875 0.6120000000000002 Q 7.780477294921875 0.6900000000000002 7.746727294921875 0.7260000000000002 Q 7.712977294921875 0.7620000000000002 7.653727294921875 0.7620000000000002 Q 7.594477294921875 0.7620000000000002 7.558477294921875 0.7305000000000001 Q 7.522477294921875 0.6990000000000002 7.522477294921875 0.6375000000000002 Q 7.522477294921875 0.6105000000000002 7.529977294921875 0.5835000000000001 L 7.579477294921875 0.5835000000000001 Q 7.589977294921875 0.5535000000000002 7.589977294921875 0.5295000000000002 Q 7.589977294921875 0.45750000000000013 7.517977294921875 0.45750000000000013 M 7.92668408203125 1.07475 Q 7.82993408203125 0.9750000000000002 7.82993408203125 0.7972500000000002 Q 7.82993408203125 0.6195000000000002 7.93868408203125 0.5250000000000001 Q 8.04743408203125 0.4305000000000002 8.21543408203125 0.4305000000000002 Q 8.55593408203125 0.4305000000000002 8.54243408203125 0.7725000000000002 L 8.11943408203125 0.7725000000000002 L 8.11943408203125 0.8310000000000002 Q 8.11943408203125 0.9780000000000002 8.15693408203125 1.0530000000000002 Q 8.19443408203125 1.1280000000000001 8.28743408203125 1.1280000000000001 Q 8.46143408203125 1.1280000000000001 8.51543408203125 0.9420000000000002 L 8.54243408203125 0.9465000000000002 Q 8.51393408203125 1.0545000000000002 8.439684082031249 1.1145000000000003 Q 8.36543408203125 1.1745 8.21693408203125 1.1745 Q 8.02343408203125 1.1745 7.92668408203125 1.07475 M 8.12093408203125 0.7425000000000002 L 8.27543408203125 0.7425000000000002 L 8.27543408203125 0.6690000000000003 Q 8.27543408203125 0.5475000000000002 8.26118408203125 0.5032500000000002 Q 8.24693408203125 0.4590000000000002 8.20418408203125 0.4590000000000002 Q 8.16143408203125 0.4590000000000002 8.14118408203125 0.5062500000000002 Q 8.12093408203125 0.5535000000000002 8.12093408203125 0.6690000000000003 L 8.12093408203125 0.7425000000000002 M 9.0974208984375 0.48750000000000016 Q 9.0419208984375 0.48750000000000016 8.9999208984375 0.5595000000000002 Q 8.9579208984375 0.6315000000000002 8.9579208984375 0.7305000000000001 L 8.9579208984375 1.1325000000000003 L 9.0644208984375 1.1325000000000003 L 9.0644208984375 1.1595000000000002 L 8.5964208984375 1.1595000000000002 L 8.5964208984375 1.1325000000000003 L 8.6789208984375 1.1325000000000003 L 8.6789208984375 0.47250000000000014 L 8.5964208984375 0.47250000000000014 L 8.5964208984375 0.44550000000000023 L 8.9579208984375 0.44550000000000023 L 8.9579208984375 0.5895000000000001 Q 8.9774208984375 0.5130000000000002 9.0329208984375 0.4717500000000002 Q 9.0884208984375 0.4305000000000002 9.1589208984375 0.4305000000000002 Q 9.2294208984375 0.4305000000000002 9.2736708984375 0.47025000000000017 Q 9.3179208984375 0.5100000000000002 9.3179208984375 0.5827500000000002 Q 9.3179208984375 0.6555000000000002 9.2849208984375 0.6945000000000001 Q 9.2519208984375 0.7335000000000003 9.1836708984375 0.7335000000000003 Q 9.1154208984375 0.7335000000000003 9.0831708984375 0.6885000000000001 Q 9.0509208984375 0.6435000000000002 9.0749208984375 0.5640000000000002 L 9.1289208984375 0.5640000000000002 Q 9.1664208984375 0.48750000000000016 9.0974208984375 0.48750000000000016" fill="#2930aa" fill-rule="nonzero"></path></g><g></g></g><defs><clipPath id="SvgjsClipPath8816"><path d=" M 0.6245837781273744 -6.521458234327536 h 8.074746017964001 v 6.271458234327536 h -8.074746017964001 Z"></path></clipPath><clipPath id="SvgjsClipPath88149528a913-c9d2-4873-a137-720c74f1a096"><path d=" M 0.6245837781273744 -6.521458234327536 L 8.699329796091376 -6.521458234327536 L 8.699329796091376 -0.25 L 0.6245837781273744 -0.25 Z"></path></clipPath></defs></svg>